G04*
G04 #@! TF.GenerationSoftware,Altium Limited,Altium Designer,21.7.2 (23)*
G04*
G04 Layer_Color=32768*
%FSLAX25Y25*%
%MOIN*%
G70*
G04*
G04 #@! TF.SameCoordinates,09E9BBC9-63B0-45BD-99AE-EBF3B05E1A71*
G04*
G04*
G04 #@! TF.FilePolarity,Positive*
G04*
G01*
G75*
%ADD11C,0.00500*%
%ADD14C,0.00600*%
%ADD16C,0.01000*%
%ADD18C,0.00394*%
%ADD133C,0.00197*%
G36*
X-138284Y406090D02*
X-246709D01*
Y352783D01*
X-138284D01*
Y406090D01*
D02*
G37*
G36*
X-49200Y459300D02*
D01*
Y428300D01*
D01*
D01*
X-85200D01*
D01*
D01*
Y459300D01*
D01*
D01*
X-49200D01*
D01*
D02*
G37*
G36*
X-11534Y405545D02*
X-119959D01*
Y352238D01*
X-11534D01*
Y405545D01*
D02*
G37*
D11*
X-119959D02*
X-11534D01*
Y352238D02*
Y405545D01*
X-119959Y352238D02*
X-11534D01*
X-119959D02*
Y405545D01*
X-246709Y406090D02*
X-138284D01*
Y352783D02*
Y406090D01*
X-246709Y352783D02*
X-138284D01*
X-246709D02*
Y406090D01*
D14*
X-138600Y470500D02*
Y475500D01*
X-141100Y473000D02*
X-136100D01*
X-49200Y428300D02*
Y459300D01*
X-85200Y428300D02*
Y459300D01*
Y428300D02*
X-49200D01*
X-85200Y459300D02*
X-49200D01*
X-149700Y190900D02*
X-144700D01*
X-147200Y188400D02*
Y193400D01*
X-87100Y140500D02*
X-82100D01*
X-84600Y138000D02*
Y143000D01*
X-99600Y167000D02*
Y172000D01*
X-102100Y169500D02*
X-97100D01*
X-71600Y131300D02*
X-66600D01*
X-69100Y128800D02*
Y133800D01*
X-77400Y148500D02*
X-72400D01*
X-74900Y146000D02*
Y151000D01*
X-72100Y163700D02*
Y168700D01*
X-74600Y166200D02*
X-69600D01*
X-56200Y167300D02*
X-51200D01*
X-53700Y164800D02*
Y169800D01*
X-93300Y187100D02*
X-88300D01*
X-90800Y184600D02*
Y189600D01*
X-111500Y187100D02*
X-106500D01*
X-109000Y184600D02*
Y189600D01*
X-102400Y187100D02*
X-97400D01*
X-99900Y184600D02*
Y189600D01*
X-103100Y244600D02*
X-98100D01*
X-100600Y242100D02*
Y247100D01*
X-112100Y244600D02*
X-107100D01*
X-109600Y242100D02*
Y247100D01*
X-37600Y30800D02*
X-32600D01*
X-35100Y28300D02*
Y33300D01*
X-114100Y134300D02*
X-109100D01*
X-111600Y131800D02*
Y136800D01*
D16*
X-160254Y443472D02*
X-146474D01*
X-160254D02*
Y478905D01*
X-116946D01*
Y443472D02*
Y478905D01*
X-146474Y443472D02*
X-116946D01*
D18*
X-108069Y263300D02*
X-104131D01*
X-106100Y261332D02*
Y265268D01*
X-94068Y282700D02*
X-90131D01*
X-92100Y280732D02*
Y284668D01*
X-93868Y301700D02*
X-89931D01*
X-91900Y299731D02*
Y303668D01*
X-136369Y144500D02*
X-132431D01*
X-134400Y142532D02*
Y146468D01*
X-96100Y122132D02*
Y126068D01*
X-98068Y124100D02*
X-94131D01*
X-89000Y122531D02*
Y126469D01*
X-90969Y124500D02*
X-87032D01*
X-119514Y244500D02*
X-115577D01*
X-117546Y242531D02*
Y246468D01*
X-77500Y239332D02*
Y243268D01*
X-79469Y241300D02*
X-75532D01*
X-111600Y191631D02*
Y195569D01*
X-113568Y193600D02*
X-109632D01*
X-100400Y208132D02*
Y212069D01*
X-102368Y210100D02*
X-98431D01*
X-95368Y244500D02*
X-91431D01*
X-93400Y242531D02*
Y246468D01*
X-84200Y195832D02*
Y199768D01*
X-86168Y197800D02*
X-82231D01*
X-67600Y204931D02*
Y208869D01*
X-69569Y206900D02*
X-65632D01*
X-48280Y8983D02*
X-41587D01*
X-48280Y22565D02*
X-41587D01*
X-48280Y8983D02*
Y22565D01*
X-41587Y8983D02*
Y22565D01*
X-44933Y13805D02*
Y17742D01*
X-46902Y15774D02*
X-42965D01*
X-58447Y8983D02*
X-51753D01*
X-58447Y22565D02*
X-51753D01*
X-58447Y8983D02*
Y22565D01*
X-51753Y8983D02*
Y22565D01*
X-55100Y13805D02*
Y17742D01*
X-57069Y15774D02*
X-53132D01*
X-38113Y8983D02*
X-31420D01*
X-38113Y22565D02*
X-31420D01*
X-38113Y8983D02*
Y22565D01*
X-31420Y8983D02*
Y22565D01*
X-34767Y13805D02*
Y17742D01*
X-36735Y15774D02*
X-32798D01*
X-27946Y8983D02*
X-21254D01*
X-27946Y22565D02*
X-21254D01*
X-27946Y8983D02*
Y22565D01*
X-21254Y8983D02*
Y22565D01*
X-24600Y13805D02*
Y17742D01*
X-26568Y15774D02*
X-22632D01*
X-50368Y123700D02*
X-46431D01*
X-48400Y121731D02*
Y125669D01*
X-61421Y146900D02*
X-57484D01*
X-59452Y144931D02*
Y148869D01*
X-39800Y96931D02*
Y100868D01*
X-41769Y98900D02*
X-37832D01*
X-63968Y162600D02*
X-60031D01*
X-62000Y160632D02*
Y164568D01*
X-78400Y280631D02*
Y284569D01*
X-80369Y282600D02*
X-76432D01*
X-78500Y299532D02*
Y303468D01*
X-80468Y301500D02*
X-76531D01*
X-64300Y245932D02*
Y249868D01*
X-66268Y247900D02*
X-62331D01*
X-62568Y173000D02*
X-58631D01*
X-60600Y171031D02*
Y174969D01*
X-34468Y192100D02*
X-30531D01*
X-32500Y190131D02*
Y194069D01*
X-37600Y211231D02*
Y215168D01*
X-39568Y213200D02*
X-35631D01*
X-37500Y217831D02*
Y221768D01*
X-39469Y219800D02*
X-35531D01*
X-21400Y230631D02*
Y234569D01*
X-23369Y232600D02*
X-19432D01*
X-78780Y8983D02*
X-72087D01*
X-78780Y22565D02*
X-72087D01*
X-78780Y8983D02*
Y22565D01*
X-72087Y8983D02*
Y22565D01*
X-75433Y13805D02*
Y17742D01*
X-77402Y15774D02*
X-73465D01*
X-68613Y8983D02*
X-61920D01*
X-68613Y22565D02*
X-61920D01*
X-68613Y8983D02*
Y22565D01*
X-61920Y8983D02*
Y22565D01*
X-65267Y13805D02*
Y17742D01*
X-67235Y15774D02*
X-63298D01*
X-88946Y8983D02*
X-82253D01*
X-88946Y22565D02*
X-82253D01*
X-88946Y8983D02*
Y22565D01*
X-82253Y8983D02*
Y22565D01*
X-85600Y13805D02*
Y17742D01*
X-87568Y15774D02*
X-83631D01*
X-142869Y183420D02*
Y198380D01*
X-151531D02*
X-142869D01*
X-151531Y183420D02*
Y198380D01*
Y183420D02*
X-142869D01*
X-80269Y133020D02*
Y147980D01*
X-88931D02*
X-80269D01*
X-88931Y133020D02*
Y147980D01*
Y133020D02*
X-80269D01*
X-107080Y165169D02*
X-92120D01*
Y173831D01*
X-107080D02*
X-92120D01*
X-107080Y165169D02*
Y173831D01*
X-64769Y123820D02*
Y138780D01*
X-73431D02*
X-64769D01*
X-73431Y123820D02*
Y138780D01*
Y123820D02*
X-64769D01*
X-70569Y141020D02*
Y155980D01*
X-79231D02*
X-70569D01*
X-79231Y141020D02*
Y155980D01*
Y141020D02*
X-70569D01*
X-79580Y170531D02*
X-64620D01*
X-79580Y161869D02*
Y170531D01*
Y161869D02*
X-64620D01*
Y170531D01*
X-49369Y159820D02*
Y174780D01*
X-58031D02*
X-49369D01*
X-58031Y159820D02*
Y174780D01*
Y159820D02*
X-49369D01*
X-86469Y179620D02*
Y194580D01*
X-95131D02*
X-86469D01*
X-95131Y179620D02*
Y194580D01*
Y179620D02*
X-86469D01*
X-104669D02*
Y194580D01*
X-113331D02*
X-104669D01*
X-113331Y179620D02*
Y194580D01*
Y179620D02*
X-104669D01*
X-95569D02*
Y194580D01*
X-104231D02*
X-95569D01*
X-104231Y179620D02*
Y194580D01*
Y179620D02*
X-95569D01*
X-96269Y237120D02*
Y252080D01*
X-104931D02*
X-96269D01*
X-104931Y237120D02*
Y252080D01*
Y237120D02*
X-96269D01*
X-105269D02*
Y252080D01*
X-113931D02*
X-105269D01*
X-113931Y237120D02*
Y252080D01*
Y237120D02*
X-105269D01*
X-30769Y23320D02*
Y38280D01*
X-39431D02*
X-30769D01*
X-39431Y23320D02*
Y38280D01*
Y23320D02*
X-30769D01*
X-107269Y126820D02*
Y141780D01*
X-115931D02*
X-107269D01*
X-115931Y126820D02*
Y141780D01*
Y126820D02*
X-107269D01*
D133*
X-174973Y298700D02*
G03*
X-174973Y298700I-10827J0D01*
G01*
X-193916Y282016D02*
X-158484D01*
X-193916Y234378D02*
Y282016D01*
Y234378D02*
X-158484D01*
Y282016D01*
X-195025Y234278D02*
Y281916D01*
X-230458Y234278D02*
X-195025D01*
X-230458D02*
Y281916D01*
X-195025D01*
X-112990Y259166D02*
Y267434D01*
X-99210Y259166D02*
Y267434D01*
X-112990D02*
X-99210D01*
X-112990Y259166D02*
X-99210D01*
X-88753Y277385D02*
Y288015D01*
X-95446Y277385D02*
Y288015D01*
X-88753D01*
X-95446Y277385D02*
X-88753D01*
X-88554Y296385D02*
Y307015D01*
X-95246Y296385D02*
Y307015D01*
X-88554D01*
X-95246Y296385D02*
X-88554D01*
X-113177Y233702D02*
X-97823D01*
Y258898D01*
X-113177D02*
X-97823D01*
X-113177Y233702D02*
Y258898D01*
X-141290Y140366D02*
Y148634D01*
X-127510Y140366D02*
Y148634D01*
X-141290D02*
X-127510D01*
X-141290Y140366D02*
X-127510D01*
X-141332Y166180D02*
X-127868D01*
X-141332Y158621D02*
X-127868D01*
Y166180D01*
X-141332Y158621D02*
Y166180D01*
X-99250Y118785D02*
X-92950D01*
X-99250Y129415D02*
X-92950D01*
X-99250Y118785D02*
Y129415D01*
X-92950Y118785D02*
Y129415D01*
X-92740Y117807D02*
X-85260D01*
X-92740Y131193D02*
X-85260D01*
X-92740Y117807D02*
Y131193D01*
X-85260Y117807D02*
Y131193D01*
X-121876Y235642D02*
Y253358D01*
X-113215Y235642D02*
Y253358D01*
X-121876Y235642D02*
X-113215D01*
X-121876Y253358D02*
X-113215D01*
X-80650Y246615D02*
X-74350D01*
X-80650Y235985D02*
X-74350D01*
Y246615D01*
X-80650Y235985D02*
Y246615D01*
X-115734Y200490D02*
X-107466D01*
X-115734Y186710D02*
X-107466D01*
Y200490D01*
X-115734Y186710D02*
Y200490D01*
X-107290Y202718D02*
X-93510D01*
X-107290Y217482D02*
X-93510D01*
X-107290Y202718D02*
Y217482D01*
X-93510Y202718D02*
Y217482D01*
X-100845Y185326D02*
Y201074D01*
X-93955D01*
Y185326D02*
Y201074D01*
X-100845Y185326D02*
X-93955D01*
X-103132Y225180D02*
X-89668D01*
X-103132Y217620D02*
X-89668D01*
Y225180D01*
X-103132Y217620D02*
Y225180D01*
X-89069Y235642D02*
Y253358D01*
X-97731Y235642D02*
Y253358D01*
X-89069D01*
X-97731Y235642D02*
X-89069D01*
X-87350Y192485D02*
X-81050D01*
X-87350Y203115D02*
X-81050D01*
X-87350Y192485D02*
Y203115D01*
X-81050Y192485D02*
Y203115D01*
X-80002Y197648D02*
X-55198D01*
X-80002Y216152D02*
X-55198D01*
Y197648D02*
Y216152D01*
X-80002Y197648D02*
Y216152D01*
X-58545Y23200D02*
Y38948D01*
X-51655D01*
Y23200D02*
Y38948D01*
X-58545Y23200D02*
X-51655D01*
X-68729D02*
Y38948D01*
X-61839D01*
Y23200D02*
Y38948D01*
X-68729Y23200D02*
X-61839D01*
X-48361D02*
Y38948D01*
X-41471D01*
Y23200D02*
Y38948D01*
X-48361Y23200D02*
X-41471D01*
X-38177D02*
Y38948D01*
X-31287D01*
Y23200D02*
Y38948D01*
X-38177Y23200D02*
X-31287D01*
X-27993D02*
Y38948D01*
X-21104D01*
Y23200D02*
Y38948D01*
X-27993Y23200D02*
X-21104D01*
X-78913D02*
Y38948D01*
X-72023D01*
Y23200D02*
Y38948D01*
X-78913Y23200D02*
X-72023D01*
X-25959Y111692D02*
Y135708D01*
X-70841Y111692D02*
Y135708D01*
X-25959D01*
X-70841Y111692D02*
X-25959D01*
X-52562Y142766D02*
Y151034D01*
X-66342Y142766D02*
Y151034D01*
Y142766D02*
X-52562D01*
X-66342Y151034D02*
X-52562D01*
X-43934Y92010D02*
X-35666D01*
X-43934Y105790D02*
X-35666D01*
X-43934Y92010D02*
Y105790D01*
X-35666Y92010D02*
Y105790D01*
X-47755Y153926D02*
Y169674D01*
X-54645Y153926D02*
X-47755D01*
X-54645D02*
Y169674D01*
X-47755D01*
X-69382Y155710D02*
Y169490D01*
X-54618Y155710D02*
Y169490D01*
X-69382D02*
X-54618D01*
X-69382Y155710D02*
X-54618D01*
X-82140Y289293D02*
X-74660D01*
X-82140Y275907D02*
X-74660D01*
Y289293D01*
X-82140Y275907D02*
Y289293D01*
X-82240Y294807D02*
X-74760D01*
X-82240Y308193D02*
X-74760D01*
X-82240Y294807D02*
Y308193D01*
X-74760Y294807D02*
Y308193D01*
X-68434Y254790D02*
X-60166D01*
X-68434Y241010D02*
X-60166D01*
Y254790D01*
X-68434Y241010D02*
Y254790D01*
X-68279Y227945D02*
Y241055D01*
X-60720Y227945D02*
Y241055D01*
X-68279D02*
X-60720D01*
X-68279Y227945D02*
X-60720D01*
X-53710Y168866D02*
Y177134D01*
X-67490Y168866D02*
Y177134D01*
Y168866D02*
X-53710D01*
X-67490Y177134D02*
X-53710D01*
X-27185Y188950D02*
Y195250D01*
X-37815Y188950D02*
Y195250D01*
Y188950D02*
X-27185D01*
X-37815Y195250D02*
X-27185D01*
X-59150Y224073D02*
Y245727D01*
X-29977Y224073D02*
Y245727D01*
X-59150D02*
X-29977D01*
X-59150Y224073D02*
X-29977D01*
X-44293Y217137D02*
X-30907D01*
X-44293Y209263D02*
X-30907D01*
X-44293D02*
Y217137D01*
X-30907Y209263D02*
Y217137D01*
X-44193Y215863D02*
X-30807D01*
X-44193Y223737D02*
X-30807D01*
Y215863D02*
Y223737D01*
X-44193Y215863D02*
Y223737D01*
X-25534Y225710D02*
X-17266D01*
X-25534Y239490D02*
X-17266D01*
X-25534Y225710D02*
Y239490D01*
X-17266Y225710D02*
Y239490D01*
X-89096Y23200D02*
Y38948D01*
X-82207D01*
Y23200D02*
Y38948D01*
X-89096Y23200D02*
X-82207D01*
M02*
