G04*
G04 #@! TF.GenerationSoftware,Altium Limited,Altium Designer,21.7.2 (23)*
G04*
G04 Layer_Physical_Order=2*
G04 Layer_Color=32768*
%FSLAX25Y25*%
%MOIN*%
G70*
G04*
G04 #@! TF.SameCoordinates,186AB076-094B-42DB-82BF-AC498878BA60*
G04*
G04*
G04 #@! TF.FilePolarity,Negative*
G04*
G01*
G75*
%ADD118C,0.04000*%
%ADD119C,0.13488*%
%ADD120C,0.15811*%
%ADD121C,0.11087*%
G04:AMPARAMS|DCode=122|XSize=130.866mil|YSize=130.866mil|CornerRadius=0mil|HoleSize=0mil|Usage=FLASHONLY|Rotation=0.000|XOffset=0mil|YOffset=0mil|HoleType=Round|Shape=Relief|Width=10mil|Gap=10mil|Entries=4|*
%AMTHD122*
7,0,0,0.13087,0.11087,0.01000,45*
%
%ADD122THD122*%
G04:AMPARAMS|DCode=123|XSize=87.559mil|YSize=87.559mil|CornerRadius=0mil|HoleSize=0mil|Usage=FLASHONLY|Rotation=0.000|XOffset=0mil|YOffset=0mil|HoleType=Round|Shape=Relief|Width=10mil|Gap=10mil|Entries=4|*
%AMTHD123*
7,0,0,0.08756,0.06756,0.01000,45*
%
%ADD123THD123*%
%ADD124C,0.06756*%
%ADD125C,0.07937*%
G04:AMPARAMS|DCode=126|XSize=99.37mil|YSize=99.37mil|CornerRadius=0mil|HoleSize=0mil|Usage=FLASHONLY|Rotation=0.000|XOffset=0mil|YOffset=0mil|HoleType=Round|Shape=Relief|Width=10mil|Gap=10mil|Entries=4|*
%AMTHD126*
7,0,0,0.09937,0.07937,0.01000,45*
%
%ADD126THD126*%
%ADD127C,0.06795*%
G04:AMPARAMS|DCode=128|XSize=87.953mil|YSize=87.953mil|CornerRadius=0mil|HoleSize=0mil|Usage=FLASHONLY|Rotation=0.000|XOffset=0mil|YOffset=0mil|HoleType=Round|Shape=Relief|Width=10mil|Gap=10mil|Entries=4|*
%AMTHD128*
7,0,0,0.08795,0.06795,0.01000,45*
%
%ADD128THD128*%
G04:AMPARAMS|DCode=129|XSize=189mil|YSize=189mil|CornerRadius=0mil|HoleSize=0mil|Usage=FLASHONLY|Rotation=0.000|XOffset=0mil|YOffset=0mil|HoleType=Round|Shape=Relief|Width=10mil|Gap=10mil|Entries=4|*
%AMTHD129*
7,0,0,0.18900,0.16900,0.01000,45*
%
%ADD129THD129*%
G04:AMPARAMS|DCode=130|XSize=75mil|YSize=75mil|CornerRadius=0mil|HoleSize=0mil|Usage=FLASHONLY|Rotation=0.000|XOffset=0mil|YOffset=0mil|HoleType=Round|Shape=Relief|Width=10mil|Gap=10mil|Entries=4|*
%AMTHD130*
7,0,0,0.07500,0.05500,0.01000,45*
%
%ADD130THD130*%
%ADD131C,0.05500*%
G04:AMPARAMS|DCode=132|XSize=78mil|YSize=78mil|CornerRadius=0mil|HoleSize=0mil|Usage=FLASHONLY|Rotation=0.000|XOffset=0mil|YOffset=0mil|HoleType=Round|Shape=Relief|Width=10mil|Gap=10mil|Entries=4|*
%AMTHD132*
7,0,0,0.07800,0.05800,0.01000,45*
%
%ADD132THD132*%
%ADD133C,0.05800*%
%ADD134C,0.06000*%
D118*
X-204135Y23440D02*
G03*
X-176198Y0I27937J4928D01*
G01*
X-18300D02*
G03*
X-0Y18300I1J18299D01*
G01*
Y480300D02*
G03*
X-19700Y500000I-19700J0D01*
G01*
X-267073Y500000D02*
G03*
X-284530Y479195I1677J-19133D01*
G01*
X-176198Y0D02*
X-18300D01*
X0Y18300D02*
Y480300D01*
X-267073Y500000D02*
X-19700Y500000D01*
X-284530Y479195D02*
X-204135Y23440D01*
D119*
X-237470Y477200D02*
D03*
X-208730D02*
D03*
D120*
X-109054Y385943D02*
D03*
X-22440D02*
D03*
X-235804Y386487D02*
D03*
X-149190D02*
D03*
D121*
X-90550Y385191D02*
D03*
X-74015D02*
D03*
X-40944D02*
D03*
X-90550Y368655D02*
D03*
X-74015D02*
D03*
X-57479D02*
D03*
X-40944D02*
D03*
X-184229Y385735D02*
D03*
X-167694D02*
D03*
X-217300Y369200D02*
D03*
X-200765D02*
D03*
X-184229D02*
D03*
X-167694D02*
D03*
D122*
X-57479Y385191D02*
D03*
X-217300Y385735D02*
D03*
X-200765D02*
D03*
D123*
X-181863Y298700D02*
D03*
D124*
X-189737D02*
D03*
D125*
X-185058Y268000D02*
D03*
Y248000D02*
D03*
X-221600Y247900D02*
D03*
Y267900D02*
D03*
D126*
X-185058Y258000D02*
D03*
X-221600Y257900D02*
D03*
D127*
X-120800Y214400D02*
D03*
X-125800D02*
D03*
Y209400D02*
D03*
X-130800Y214400D02*
D03*
X-135800D02*
D03*
X-140800D02*
D03*
Y209400D02*
D03*
D128*
X-120800D02*
D03*
X-130800D02*
D03*
X-135800D02*
D03*
D129*
X-266900Y482300D02*
D03*
X-150000Y75000D02*
D03*
X-185100Y20000D02*
D03*
X-16200Y17600D02*
D03*
X-17100Y481900D02*
D03*
X-50000Y462500D02*
D03*
X-150000D02*
D03*
D130*
X-37000Y14200D02*
D03*
X-84100Y191300D02*
D03*
X-60600Y154500D02*
D03*
X-59800Y188900D02*
D03*
X-82900Y150100D02*
D03*
X-29547Y186253D02*
D03*
X-113500Y306700D02*
D03*
X-118300Y263400D02*
D03*
X-132600Y115550D02*
D03*
X-114900Y146600D02*
D03*
X-145200Y148300D02*
D03*
X-83400Y121200D02*
D03*
X-91010Y139590D02*
D03*
X-154900Y171800D02*
D03*
X-111300Y201300D02*
D03*
X-112800Y175700D02*
D03*
X-128700Y229600D02*
D03*
X-87600Y167900D02*
D03*
X-108100Y292700D02*
D03*
X-77500Y250200D02*
D03*
X-72500Y297100D02*
D03*
X-71800Y279200D02*
D03*
X-70400Y213400D02*
D03*
X-52600Y254500D02*
D03*
X-82700Y76300D02*
D03*
X-59500Y101050D02*
D03*
X-41200Y230900D02*
D03*
X-27729Y232700D02*
D03*
X-81977Y106292D02*
D03*
X-40300Y114700D02*
D03*
D131*
X-52600Y46800D02*
D03*
X-100900Y175700D02*
D03*
X-34000Y204900D02*
D03*
X-100600Y230200D02*
D03*
X-87500Y219100D02*
D03*
X-65000Y204500D02*
D03*
X-50600Y208771D02*
D03*
X-122624Y182300D02*
D03*
X-103900Y152700D02*
D03*
X-80000Y179400D02*
D03*
X-81700Y127200D02*
D03*
X-97500Y272900D02*
D03*
X-103400Y197500D02*
D03*
X-143800Y181224D02*
D03*
X-85942Y172766D02*
D03*
X-67600Y153700D02*
D03*
X-81900Y154900D02*
D03*
X-86300Y291800D02*
D03*
X-138500Y237200D02*
D03*
X-34000Y102000D02*
D03*
X-121300Y139100D02*
D03*
X-113300Y166000D02*
D03*
X-62600Y124500D02*
D03*
X-78900Y132000D02*
D03*
X-75900Y134600D02*
D03*
X-28500Y138400D02*
D03*
X-68427Y147073D02*
D03*
X-94200Y156000D02*
D03*
X-61700Y162700D02*
D03*
X-109800Y170200D02*
D03*
X-116407Y181513D02*
D03*
X-110700Y229000D02*
D03*
X-60700Y166400D02*
D03*
X-90300Y171900D02*
D03*
X-80000Y173800D02*
D03*
X-97800Y175900D02*
D03*
X-70548Y177752D02*
D03*
X-31200Y179000D02*
D03*
X-70200Y203900D02*
D03*
X-100400Y208800D02*
D03*
X-81800Y229300D02*
D03*
X-77200Y233900D02*
D03*
X-72173Y241327D02*
D03*
X-37700Y47700D02*
D03*
X-83050Y86250D02*
D03*
X-82644Y91823D02*
D03*
X-95923Y96123D02*
D03*
X-96700Y101300D02*
D03*
X-28800Y207500D02*
D03*
X-46200Y236700D02*
D03*
X-28376Y227800D02*
D03*
X-23900Y242200D02*
D03*
D132*
X-108800Y9800D02*
D03*
X-43000Y173000D02*
D03*
X-20800Y396800D02*
D03*
X-213900Y239300D02*
D03*
X-178100Y238500D02*
D03*
D133*
X-122600Y176400D02*
D03*
X-149100Y201000D02*
D03*
D134*
X-201200Y293661D02*
D03*
X-208500Y336561D02*
D03*
X-215900D02*
D03*
X-201200Y303561D02*
D03*
X-199600Y327161D02*
D03*
Y318761D02*
D03*
M02*
