G04*
G04 #@! TF.GenerationSoftware,Altium Limited,Altium Designer,21.7.2 (23)*
G04*
G04 Layer_Color=32768*
%FSLAX25Y25*%
%MOIN*%
G70*
G04*
G04 #@! TF.SameCoordinates,09E9BBC9-63B0-45BD-99AE-EBF3B05E1A71*
G04*
G04*
G04 #@! TF.FilePolarity,Positive*
G04*
G01*
G75*
%ADD12C,0.00787*%
D12*
X-223195Y332380D02*
X-202605D01*
X-223195Y289821D02*
Y332380D01*
Y289821D02*
X-202605D01*
Y332380D01*
X-163648Y308710D02*
X-157152D01*
X-163648Y297490D02*
Y308710D01*
Y297490D02*
X-157152D01*
Y308710D01*
X-171948Y308610D02*
X-165452D01*
X-171948Y297390D02*
Y308610D01*
Y297390D02*
X-165452D01*
Y308610D01*
X-96234Y276380D02*
Y289420D01*
X-103566Y276380D02*
X-96234D01*
X-103566D02*
Y289420D01*
X-96234D01*
X-103566Y295380D02*
Y308420D01*
X-96234D01*
Y295380D02*
Y308420D01*
X-103566Y295380D02*
X-96234D01*
X-79674Y233854D02*
Y255146D01*
X-90926Y233854D02*
X-79674D01*
X-90926D02*
Y255146D01*
X-79674D01*
X-82150Y296369D02*
Y307031D01*
X-88450Y296369D02*
X-82150D01*
X-88450D02*
Y307031D01*
X-82150D01*
X-82050Y277369D02*
Y288031D01*
X-88350Y277369D02*
X-82050D01*
X-88350D02*
Y288031D01*
X-82050D01*
X-142782Y166863D02*
X-126018D01*
X-142782D02*
Y176737D01*
X-126018D01*
Y166863D02*
Y176737D01*
X-139580Y132243D02*
X-129344D01*
X-139580D02*
Y138542D01*
X-129344D01*
Y132243D02*
Y138542D01*
X-139525Y130642D02*
X-129289D01*
Y124343D02*
Y130642D01*
X-139525Y124343D02*
X-129289D01*
X-139525D02*
Y130642D01*
X-142782Y148663D02*
X-126018D01*
X-142782D02*
Y158537D01*
X-126018D01*
Y148663D02*
Y158537D01*
X-223210Y232748D02*
X-211990D01*
Y226252D02*
Y232748D01*
X-223210Y226252D02*
X-211990D01*
X-223210D02*
Y232748D01*
X-145448Y221698D02*
Y233902D01*
X-138952D01*
Y221698D02*
Y233902D01*
X-145448Y221698D02*
X-138952D01*
X-131552Y221598D02*
Y233802D01*
X-138048Y221598D02*
X-131552D01*
X-138048D02*
Y233802D01*
X-131552D01*
X-142782Y177863D02*
X-126018D01*
X-142782D02*
Y187737D01*
X-126018D01*
Y177863D02*
Y187737D01*
X-142782Y201637D02*
X-126018D01*
Y191763D02*
Y201637D01*
X-142782Y191763D02*
X-126018D01*
X-142782D02*
Y201637D01*
X-125937Y185518D02*
Y202282D01*
X-116063D01*
Y185518D02*
Y202282D01*
X-125937Y185518D02*
X-116063D01*
X-130926Y233754D02*
Y255046D01*
X-119674D01*
Y233754D02*
Y255046D01*
X-130926Y233754D02*
X-119674D01*
X-112937Y274719D02*
Y291681D01*
X-103063D01*
Y274719D02*
Y291681D01*
X-112937Y274719D02*
X-103063D01*
X-112837Y294119D02*
Y311081D01*
X-102963D01*
Y294119D02*
Y311081D01*
X-112837Y294119D02*
X-102963D01*
X-30677Y411732D02*
X-13723D01*
Y401668D02*
Y411732D01*
X-30677Y401668D02*
X-13723D01*
X-30677D02*
Y411732D01*
X-70463Y114519D02*
Y131481D01*
X-80337Y114519D02*
X-70463D01*
X-80337D02*
Y131481D01*
X-70463D01*
X-37863Y153319D02*
Y170281D01*
X-47737Y153319D02*
X-37863D01*
X-47737D02*
Y170281D01*
X-37863D01*
X-49363Y180518D02*
Y197282D01*
X-59237Y180518D02*
X-49363D01*
X-59237D02*
Y197282D01*
X-49363D01*
X-60263Y180518D02*
Y197282D01*
X-70137Y180518D02*
X-60263D01*
X-70137D02*
Y197282D01*
X-60263D01*
X-71163Y180518D02*
Y197282D01*
X-81037Y180518D02*
X-71163D01*
X-81037D02*
Y197282D01*
X-71163D01*
X-76181Y215063D02*
X-59219D01*
X-76181D02*
Y224937D01*
X-59219D01*
Y215063D02*
Y224937D01*
X-38463Y180418D02*
Y197182D01*
X-48337Y180418D02*
X-38463D01*
X-48337D02*
Y197182D01*
X-38463D01*
X-59748Y224937D02*
X-42786D01*
Y215063D02*
Y224937D01*
X-59748Y215063D02*
X-42786D01*
X-59748D02*
Y224937D01*
X-187210Y232748D02*
X-175990D01*
Y226252D02*
Y232748D01*
X-187210Y226252D02*
X-175990D01*
X-187210D02*
Y232748D01*
M02*
