G04*
G04 #@! TF.GenerationSoftware,Altium Limited,Altium Designer,21.7.2 (23)*
G04*
G04 Layer_Color=32768*
%FSLAX25Y25*%
%MOIN*%
G70*
G04*
G04 #@! TF.SameCoordinates,09E9BBC9-63B0-45BD-99AE-EBF3B05E1A71*
G04*
G04*
G04 #@! TF.FilePolarity,Positive*
G04*
G01*
G75*
%ADD18C,0.00394*%
D18*
X-214868Y311100D02*
X-210931D01*
X-212900Y309132D02*
Y313069D01*
X-162369Y303100D02*
X-158431D01*
X-160400Y301132D02*
Y305068D01*
X-170668Y303000D02*
X-166732D01*
X-168700Y301031D02*
Y304969D01*
X-99900Y280931D02*
Y284869D01*
X-101868Y282900D02*
X-97931D01*
X-99900Y299932D02*
Y303869D01*
X-101868Y301900D02*
X-97931D01*
X-85300Y242531D02*
Y246468D01*
X-87269Y244500D02*
X-83332D01*
X-85300Y299731D02*
Y303668D01*
X-87269Y301700D02*
X-83332D01*
X-85200Y280732D02*
Y284668D01*
X-87169Y282700D02*
X-83232D01*
X-136369Y171800D02*
X-132431D01*
X-134400Y169832D02*
Y173768D01*
X-136431Y135393D02*
X-132494D01*
X-134462Y133424D02*
Y137361D01*
X-136376Y127493D02*
X-132439D01*
X-134407Y125524D02*
Y129461D01*
X-136369Y153600D02*
X-132431D01*
X-134400Y151631D02*
Y155569D01*
X-219568Y229500D02*
X-215632D01*
X-217600Y227532D02*
Y231469D01*
X-142200Y225832D02*
Y229768D01*
X-144168Y227800D02*
X-140232D01*
X-134800Y225731D02*
Y229668D01*
X-136768Y227700D02*
X-132832D01*
X-136369Y182800D02*
X-132431D01*
X-134400Y180832D02*
Y184768D01*
X-136369Y196700D02*
X-132431D01*
X-134400Y194731D02*
Y198669D01*
X-121000Y191931D02*
Y195869D01*
X-122968Y193900D02*
X-119032D01*
X-125300Y242431D02*
Y246369D01*
X-127269Y244400D02*
X-123331D01*
X-108000Y281231D02*
Y285169D01*
X-109968Y283200D02*
X-106032D01*
X-107900Y300631D02*
Y304569D01*
X-109869Y302600D02*
X-105931D01*
X-24169Y406700D02*
X-20232D01*
X-22200Y404732D02*
Y408669D01*
X-75400Y121031D02*
Y124969D01*
X-77368Y123000D02*
X-73431D01*
X-42800Y159832D02*
Y163768D01*
X-44769Y161800D02*
X-40832D01*
X-54300Y186932D02*
Y190868D01*
X-56269Y188900D02*
X-52332D01*
X-65200Y186932D02*
Y190868D01*
X-67168Y188900D02*
X-63231D01*
X-76100Y186932D02*
Y190868D01*
X-78069Y188900D02*
X-74132D01*
X-69669Y220000D02*
X-65732D01*
X-67700Y218032D02*
Y221969D01*
X-43400Y186831D02*
Y190769D01*
X-45368Y188800D02*
X-41431D01*
X-53236Y220000D02*
X-49299D01*
X-51267Y218032D02*
Y221969D01*
X-183569Y229500D02*
X-179631D01*
X-181600Y227532D02*
Y231469D01*
M02*
