M48
;Layer_Color=9474304
;FILE_FORMAT=2:4
INCH,TZ
;TYPE=PLATED
T1F00S00C0.0150
T2F00S00C0.0180
T3F00S00C0.0200
T4F00S00C0.0276
T5F00S00C0.0280
T6F00S00C0.0394
T7F00S00C0.0709
T8F00S00C0.1290
;TYPE=NON_PLATED
T9F00S00C0.0949
T10F00S00C0.1181
%
T01
X-3700Y1420
X-3770Y4770
X-5260Y4680
X-5950Y10105
X-3400Y10200
X-4030Y11470
X-6260Y12450
X-6843Y14707
X-6760Y15370
X-6060Y15450
X-6170Y16270
X-6070Y16640
X-5980Y18890
X-6500Y20450
X-7020Y20390
X-5060Y20877
X-3400Y20490
X-2880Y20750
X-2955Y18625
X-3120Y17900
X-2850Y13840
X-7590Y13460
X-7890Y13200
X-8170Y12720
X-8340Y12120
X-8198Y10629
X-8264Y9182
X-8305Y8625
X-8270Y7630
X-9592Y9612
X-9670Y10130
X-9101Y13959
X-8290Y15010
X-8190Y15490
X-9420Y15600
X-10390Y15270
X-11490Y14660
X-12130Y13910
X-14520Y14830
X-15490Y17180
X-14380Y18122
X-12262Y18230
X-11641Y18151
X-11280Y17570
X-10980Y17020
X-11330Y16600
X-10090Y17570
X-9780Y17590
X-9030Y17190
X-8594Y17277
X-8760Y16790
X-8000Y17380
Y17940
X-7055Y17775
X-8410Y19130
X-10340Y19750
X-11130Y20130
X-10040Y20880
X-8750Y21910
X-7040Y21340
X-13260Y11555
X-12870Y22960
X-13850Y23720
X-11070Y22900
X-10060Y23020
X-8180Y22930
X-7720Y23390
X-7217Y24133
X-7750Y25020
X-7180Y27920
X-7250Y29710
X-8630Y29180
X-10810Y29270
X-11350Y30670
X-11830Y26340
X-9750Y27290
X-5260Y25450
X-4620Y23670
X-4120Y23090
X-2773Y23270
X-2838Y22780
X-2390Y24220
T02
X-10880Y980
X-4300Y17300
X-12260Y17640
X-14910Y20100
X-17810Y23850
X-21390Y23930
X-2080Y39680
T03
X-20120Y29366
Y30356
X-19960Y31876
Y32716
X-20850Y33656
X-21590
T04
X-18974Y29870
X-18186
T05
X-14080Y20940
X-13580
X-13080
X-12580
X-12080
Y21440
X-12580
X-13080
X-13580
X-14080
T06
X-22160Y24790
Y25790
Y26790
X-18506Y26800
Y25800
Y24800
T07
X-21730Y36920
X-20076
X-18423
X-16769
X-9055Y36866
X-7401
X-5748
X-4094
Y38519
X-5748
X-7401
X-9055
X-16769Y38574
X-18423
X-20076
X-21730
T08
X-18510Y2000
X-1620Y1760
X-15000Y7500
X-5000Y46250
X-1710Y48190
X-15000Y46250
X-26690Y48230
T09
X-20873Y47720
X-23747
T10
X-2244Y38594
X-10905
X-14919Y38649
X-23580
M30
