M48
;Layer_Color=9474304
;FILE_FORMAT=2:5
INCH
;TYPE=PLATED
T1F00S00C0.02000
T2F00S00C0.02756
T3F00S00C0.02795
T4F00S00C0.03268
T5F00S00C0.03500
T6F00S00C0.03543
T7F00S00C0.04000
T8F00S00C0.04094
T9F00S00C0.04134
T10F00S00C0.04331
T11F00S00C0.04500
T12F00S00C0.04724
T13F00S00C0.04882
T14F00S00C0.11500
;TYPE=NON_PLATED
T15F00S00C0.09488
T16F00S00C0.14173
%
T01
X0132000Y0139000
X0136000Y0137500
X0218900Y0134300
X0352300Y0118700
X0363800Y0116400
X0437400Y0111100
X0474200Y0169700
X0473107Y0257607
X0478400Y0308800
X0491400Y0310782
X0425264Y0289323
X0407400Y0277600
X0385900Y0272100
X0370800Y0272400
X0365900Y0260400
X0366100Y0250600
X0366300Y0233600
X0364800Y0215450
X0367400Y0212200
X0381768Y0241300
X0405668Y0240874
X0405330Y0236670
X0406482Y0228969
X0424168Y0234874
X0400300Y0250800
X0384100Y0300100
X0331400Y0301900
X0314100Y0304700
X0319639Y0310539
X0312800Y0290000
X0324000Y0285600
X0323100Y0254800
X0333000Y0240800
X0293600Y0272000
X0248300Y0257400
X0248500Y0239100
X0232600Y0211700
X0208800Y0221441
X0130500Y0304000
X0213500Y0388500
X0296100Y0358700
X0311000Y0335100
X0310264Y0321823
X0316100Y0324673
X0334900Y0324400
X0331000Y0330300
X0331100Y0318000
X0403700Y0314223
X0407500Y0318700
X0405500Y0323500
X0410100Y0328600
X0425811Y0334011
X0446300Y0328700
X0474500Y0380500
T02
X0471900Y0265700
Y0275200
X0501400
Y0265700
X0465700Y0234900
Y0225500
Y0216100
X0436200
Y0225500
Y0234900
X0387600Y0197000
X0377200Y0196900
X0350600
X0340900
Y0167400
X0350600
X0377200
X0387600Y0167500
X0397300Y0307700
X0367800
X0241700Y0240500
X0212200
X0209500Y0326000
Y0355500
X0337000Y0356500
Y0386000
X0367900Y0320000
X0397400
T03
X0368100Y0365300
Y0370300
X0373100
Y0365300
X0378100
Y0370300
X0383100
Y0365300
X0388100
Y0370300
T04
X0420400Y0247100
Y0257100
Y0267100
Y0277100
X0451400
Y0267100
Y0257100
Y0247100
T05
X0317000Y0281450
X0309000
X0192453Y0314418
T06
X0200900Y0247667
Y0293533
T07
X0192500Y0332000
Y0342000
Y0352000
T08
X0144800Y0248900
X0154800
Y0258900
Y0268900
Y0278900
X0144800
Y0268900
Y0258900
T09
X0250820Y0293400
X0288380
T10
X0432600Y0205200
X0442600
X0452600
X0462600
T11
X0145100Y0112900
Y0122900
X0145500Y0152000
X0175250
X0205000
X0205167Y0122500
Y0112500
X0235500
Y0122500
X0234750Y0152000
X0264500
X0294250
X0296167Y0122500
Y0112500
X0265833
Y0122500
X0174833
Y0112500
X0326500
Y0122500
X0324000Y0152000
X0401600Y0153600
X0401900Y0138600
Y0126350
Y0114100
X0421900
Y0126350
Y0138600
X0441600Y0153600
X0457000Y0153000
X0457100Y0137700
X0457000Y0125200
X0477000
X0477100Y0137700
X0497000Y0153000
X0497300Y0170700
X0497200Y0188100
X0457200
X0441600Y0188600
Y0171100
X0457300Y0170700
X0401600Y0171100
Y0188600
X0374200Y0234300
Y0247825
Y0261350
X0354200
Y0247825
Y0234300
X0333600Y0229700
X0320250
Y0209700
X0333600
X0324000Y0192000
X0312764Y0251823
Y0271823
X0339264
Y0251823
X0306900Y0229700
Y0209700
X0294250Y0192000
X0264500
X0234750
X0205000
X0175250
X0263600Y0268500
X0263700Y0281500
X0283700
X0283600Y0268500
X0275764Y0310323
X0255764
X0145500Y0192000
X0256000Y0324000
Y0337000
X0276000
Y0324000
X0309264Y0360823
Y0380823
X0368200Y0347300
X0367764Y0333823
X0387764
X0388200Y0347300
X0473764Y0333823
X0493764
T12
X0241000Y0265700
Y0275700
Y0285700
T13
X0234000Y0316500
Y0326500
Y0336500
T14
X0123500Y0112000
X0498500Y0112500
X0123500Y0379700
X0498500Y0379500
T15
X0145260Y0346500
X0174000
T16
X0131800Y0237400
X0131300Y0289900
M30
