G04*
G04 #@! TF.GenerationSoftware,Altium Limited,Altium Designer,21.0.8 (223)*
G04*
G04 Layer_Color=128*
%FSAX25Y25*%
%MOIN*%
G70*
G04*
G04 #@! TF.SameCoordinates,E9B5AFCA-11DB-46D5-B1A1-4708AB9E7353*
G04*
G04*
G04 #@! TF.FilePolarity,Positive*
G04*
G01*
G75*
%ADD81C,0.00200*%
D81*
X0152753Y0278900D02*
X0156847D01*
X0154800Y0276853D02*
Y0280947D01*
X0152753Y0268900D02*
X0156847D01*
X0154800Y0266853D02*
Y0270947D01*
X0152753Y0258900D02*
X0156847D01*
X0154800Y0256853D02*
Y0260947D01*
X0152753Y0248900D02*
X0156847D01*
X0154800Y0246853D02*
Y0250947D01*
X0142753Y0248900D02*
X0146847D01*
X0144800Y0246853D02*
Y0250947D01*
X0142753Y0258900D02*
X0146847D01*
X0144800Y0256853D02*
Y0260947D01*
X0142753Y0268900D02*
X0146847D01*
X0144800Y0266853D02*
Y0270947D01*
X0142753Y0278900D02*
X0146847D01*
X0144800Y0276853D02*
Y0280947D01*
X0124713Y0237400D02*
X0138887D01*
X0131800Y0230313D02*
Y0244487D01*
X0124213Y0289900D02*
X0138387D01*
X0131300Y0282813D02*
Y0296987D01*
X0231559Y0336500D02*
X0236441D01*
X0234000Y0334059D02*
Y0338941D01*
X0231559Y0326500D02*
X0236441D01*
X0234000Y0324059D02*
Y0328941D01*
X0231559Y0316500D02*
X0236441D01*
X0234000Y0314059D02*
Y0318941D01*
X0238638Y0285700D02*
X0243362D01*
X0241000Y0283338D02*
Y0288062D01*
X0238638Y0275700D02*
X0243362D01*
X0241000Y0273338D02*
Y0278062D01*
X0238638Y0265700D02*
X0243362D01*
X0241000Y0263338D02*
Y0268062D01*
X0418766Y0277100D02*
X0422034D01*
X0420400Y0275466D02*
Y0278734D01*
X0418766Y0267100D02*
X0422034D01*
X0420400Y0265466D02*
Y0268734D01*
X0418766Y0257100D02*
X0422034D01*
X0420400Y0255466D02*
Y0258734D01*
X0418766Y0247100D02*
X0422034D01*
X0420400Y0245466D02*
Y0248734D01*
X0449766Y0247100D02*
X0453034D01*
X0451400Y0245466D02*
Y0248734D01*
X0449766Y0257100D02*
X0453034D01*
X0451400Y0255466D02*
Y0258734D01*
X0449766Y0267100D02*
X0453034D01*
X0451400Y0265466D02*
Y0268734D01*
X0449766Y0277100D02*
X0453034D01*
X0451400Y0275466D02*
Y0278734D01*
X0169256Y0346500D02*
X0178744D01*
X0174000Y0341756D02*
Y0351244D01*
X0140516Y0346500D02*
X0150004D01*
X0145260Y0341756D02*
Y0351244D01*
X0208122Y0355500D02*
X0210878D01*
X0209500Y0354122D02*
Y0356878D01*
X0208122Y0326000D02*
X0210878D01*
X0209500Y0324622D02*
Y0327378D01*
X0240322Y0240500D02*
X0243078D01*
X0241700Y0239122D02*
Y0241878D01*
X0210822Y0240500D02*
X0213578D01*
X0212200Y0239122D02*
Y0241878D01*
X0321750Y0152000D02*
X0326250D01*
X0324000Y0149750D02*
Y0154250D01*
X0321750Y0192000D02*
X0326250D01*
X0324000Y0189750D02*
Y0194250D01*
X0339522Y0196900D02*
X0342278D01*
X0340900Y0195522D02*
Y0198278D01*
X0339522Y0167400D02*
X0342278D01*
X0340900Y0166022D02*
Y0168778D01*
X0349222Y0167400D02*
X0351978D01*
X0350600Y0166022D02*
Y0168778D01*
X0349222Y0196900D02*
X0351978D01*
X0350600Y0195522D02*
Y0198278D01*
X0386222Y0197000D02*
X0388978D01*
X0387600Y0195622D02*
Y0198378D01*
X0386222Y0167500D02*
X0388978D01*
X0387600Y0166122D02*
Y0168878D01*
X0494950Y0188100D02*
X0499450D01*
X0497200Y0185850D02*
Y0190350D01*
X0454950Y0188100D02*
X0459450D01*
X0457200Y0185850D02*
Y0190350D01*
X0399350Y0188600D02*
X0403850D01*
X0401600Y0186350D02*
Y0190850D01*
X0439350Y0188600D02*
X0443850D01*
X0441600Y0186350D02*
Y0190850D01*
X0190500Y0352000D02*
X0194500D01*
X0192500Y0350000D02*
Y0354000D01*
X0190500Y0342000D02*
X0194500D01*
X0192500Y0340000D02*
Y0344000D01*
X0190500Y0332000D02*
X0194500D01*
X0192500Y0330000D02*
Y0334000D01*
X0454750Y0153000D02*
X0459250D01*
X0457000Y0150750D02*
Y0155250D01*
X0494750Y0153000D02*
X0499250D01*
X0497000Y0150750D02*
Y0155250D01*
X0454750Y0125200D02*
X0459250D01*
X0457000Y0122950D02*
Y0127450D01*
X0474750Y0125200D02*
X0479250D01*
X0477000Y0122950D02*
Y0127450D01*
X0474850Y0137700D02*
X0479350D01*
X0477100Y0135450D02*
Y0139950D01*
X0454850Y0137700D02*
X0459350D01*
X0457100Y0135450D02*
Y0139950D01*
X0455050Y0170700D02*
X0459550D01*
X0457300Y0168450D02*
Y0172950D01*
X0495050Y0170700D02*
X0499550D01*
X0497300Y0168450D02*
Y0172950D01*
X0439350Y0153600D02*
X0443850D01*
X0441600Y0151350D02*
Y0155850D01*
X0399350Y0153600D02*
X0403850D01*
X0401600Y0151350D02*
Y0155850D01*
X0399350Y0171100D02*
X0403850D01*
X0401600Y0168850D02*
Y0173350D01*
X0439350Y0171100D02*
X0443850D01*
X0441600Y0168850D02*
Y0173350D01*
X0460435Y0205200D02*
X0464765D01*
X0462600Y0203035D02*
Y0207365D01*
X0450435Y0205200D02*
X0454765D01*
X0452600Y0203035D02*
Y0207365D01*
X0430435Y0205200D02*
X0434765D01*
X0432600Y0203035D02*
Y0207365D01*
X0440435Y0205200D02*
X0444765D01*
X0442600Y0203035D02*
Y0207365D01*
X0419650Y0126350D02*
X0424150D01*
X0421900Y0124100D02*
Y0128600D01*
X0399650Y0126350D02*
X0404150D01*
X0401900Y0124100D02*
Y0128600D01*
X0399650Y0138600D02*
X0404150D01*
X0401900Y0136350D02*
Y0140850D01*
X0419650Y0138600D02*
X0424150D01*
X0421900Y0136350D02*
Y0140850D01*
X0399650Y0114100D02*
X0404150D01*
X0401900Y0111850D02*
Y0116350D01*
X0419650Y0114100D02*
X0424150D01*
X0421900Y0111850D02*
Y0116350D01*
X0365950Y0347300D02*
X0370450D01*
X0368200Y0345050D02*
Y0349550D01*
X0385950Y0347300D02*
X0390450D01*
X0388200Y0345050D02*
Y0349550D01*
X0335622Y0386000D02*
X0338378D01*
X0337000Y0384622D02*
Y0387378D01*
X0335622Y0356500D02*
X0338378D01*
X0337000Y0355122D02*
Y0357878D01*
X0396022Y0320000D02*
X0398778D01*
X0397400Y0318622D02*
Y0321378D01*
X0366522Y0320000D02*
X0369278D01*
X0367900Y0318622D02*
Y0321378D01*
X0366702Y0365300D02*
X0369498D01*
X0368100Y0363902D02*
Y0366698D01*
X0366702Y0370300D02*
X0369498D01*
X0368100Y0368902D02*
Y0371698D01*
X0371702Y0365300D02*
X0374498D01*
X0373100Y0363902D02*
Y0366698D01*
X0371702Y0370300D02*
X0374498D01*
X0373100Y0368902D02*
Y0371698D01*
X0376702Y0365300D02*
X0379498D01*
X0378100Y0363902D02*
Y0366698D01*
X0376702Y0370300D02*
X0379498D01*
X0378100Y0368902D02*
Y0371698D01*
X0381702Y0365300D02*
X0384498D01*
X0383100Y0363902D02*
Y0366698D01*
X0381702Y0370300D02*
X0384498D01*
X0383100Y0368902D02*
Y0371698D01*
X0386702Y0365300D02*
X0389498D01*
X0388100Y0363902D02*
Y0366698D01*
X0386702Y0370300D02*
X0389498D01*
X0388100Y0368902D02*
Y0371698D01*
X0337014Y0271823D02*
X0341514D01*
X0339264Y0269573D02*
Y0274073D01*
X0337014Y0251823D02*
X0341514D01*
X0339264Y0249573D02*
Y0254073D01*
X0310514Y0271823D02*
X0315014D01*
X0312764Y0269573D02*
Y0274073D01*
X0310514Y0251823D02*
X0315014D01*
X0312764Y0249573D02*
Y0254073D01*
X0371950Y0261350D02*
X0376450D01*
X0374200Y0259100D02*
Y0263600D01*
X0351950Y0261350D02*
X0356450D01*
X0354200Y0259100D02*
Y0263600D01*
X0375822Y0167400D02*
X0378578D01*
X0377200Y0166022D02*
Y0168778D01*
X0375822Y0196900D02*
X0378578D01*
X0377200Y0195522D02*
Y0198278D01*
X0331350Y0209700D02*
X0335850D01*
X0333600Y0207450D02*
Y0211950D01*
X0331350Y0229700D02*
X0335850D01*
X0333600Y0227450D02*
Y0231950D01*
X0281450Y0281500D02*
X0285950D01*
X0283700Y0279250D02*
Y0283750D01*
X0261450Y0281500D02*
X0265950D01*
X0263700Y0279250D02*
Y0283750D01*
X0248753Y0293400D02*
X0252887D01*
X0250820Y0291333D02*
Y0295467D01*
X0286313Y0293400D02*
X0290446D01*
X0288380Y0291333D02*
Y0295467D01*
X0261350Y0268500D02*
X0265850D01*
X0263600Y0266250D02*
Y0270750D01*
X0281350Y0268500D02*
X0285850D01*
X0283600Y0266250D02*
Y0270750D01*
X0318000Y0229700D02*
X0322500D01*
X0320250Y0227450D02*
Y0231950D01*
X0318000Y0209700D02*
X0322500D01*
X0320250Y0207450D02*
Y0211950D01*
X0304650Y0229700D02*
X0309150D01*
X0306900Y0227450D02*
Y0231950D01*
X0304650Y0209700D02*
X0309150D01*
X0306900Y0207450D02*
Y0211950D01*
X0395922Y0307700D02*
X0398678D01*
X0397300Y0306322D02*
Y0309078D01*
X0366422Y0307700D02*
X0369178D01*
X0367800Y0306322D02*
Y0309078D01*
X0142850Y0122900D02*
X0147350D01*
X0145100Y0120650D02*
Y0125150D01*
X0142850Y0112900D02*
X0147350D01*
X0145100Y0110650D02*
Y0115150D01*
X0500022Y0265700D02*
X0502778D01*
X0501400Y0264322D02*
Y0267078D01*
X0470522Y0265700D02*
X0473278D01*
X0471900Y0264322D02*
Y0267078D01*
X0500022Y0275200D02*
X0502778D01*
X0501400Y0273822D02*
Y0276578D01*
X0470522Y0275200D02*
X0473278D01*
X0471900Y0273822D02*
Y0276578D01*
X0464322Y0225500D02*
X0467078D01*
X0465700Y0224122D02*
Y0226878D01*
X0434822Y0225500D02*
X0437578D01*
X0436200Y0224122D02*
Y0226878D01*
X0464322Y0234900D02*
X0467078D01*
X0465700Y0233522D02*
Y0236278D01*
X0434822Y0234900D02*
X0437578D01*
X0436200Y0233522D02*
Y0236278D01*
X0464322Y0216100D02*
X0467078D01*
X0465700Y0214722D02*
Y0217478D01*
X0434822Y0216100D02*
X0437578D01*
X0436200Y0214722D02*
Y0217478D01*
X0351950Y0247825D02*
X0356450D01*
X0354200Y0245575D02*
Y0250075D01*
X0371950Y0247825D02*
X0376450D01*
X0374200Y0245575D02*
Y0250075D01*
X0351950Y0234300D02*
X0356450D01*
X0354200Y0232050D02*
Y0236550D01*
X0371950Y0234300D02*
X0376450D01*
X0374200Y0232050D02*
Y0236550D01*
X0253514Y0310323D02*
X0258014D01*
X0255764Y0308073D02*
Y0312573D01*
X0273514Y0310323D02*
X0278014D01*
X0275764Y0308073D02*
Y0312573D01*
X0307014Y0380823D02*
X0311514D01*
X0309264Y0378573D02*
Y0383073D01*
X0307014Y0360823D02*
X0311514D01*
X0309264Y0358573D02*
Y0363073D01*
X0385514Y0333823D02*
X0390014D01*
X0387764Y0331573D02*
Y0336073D01*
X0365514Y0333823D02*
X0370014D01*
X0367764Y0331573D02*
Y0336073D01*
X0491514Y0333823D02*
X0496014D01*
X0493764Y0331573D02*
Y0336073D01*
X0471514Y0333823D02*
X0476014D01*
X0473764Y0331573D02*
Y0336073D01*
X0253750Y0337000D02*
X0258250D01*
X0256000Y0334750D02*
Y0339250D01*
X0273750Y0337000D02*
X0278250D01*
X0276000Y0334750D02*
Y0339250D01*
X0253750Y0324000D02*
X0258250D01*
X0256000Y0321750D02*
Y0326250D01*
X0273750Y0324000D02*
X0278250D01*
X0276000Y0321750D02*
Y0326250D01*
X0199128Y0293533D02*
X0202672D01*
X0200900Y0291761D02*
Y0295305D01*
X0199128Y0247667D02*
X0202672D01*
X0200900Y0245895D02*
Y0249439D01*
X0324250Y0112500D02*
X0328750D01*
X0326500Y0110250D02*
Y0114750D01*
X0324250Y0122500D02*
X0328750D01*
X0326500Y0120250D02*
Y0124750D01*
X0293917Y0112500D02*
X0298417D01*
X0296167Y0110250D02*
Y0114750D01*
X0293917Y0122500D02*
X0298417D01*
X0296167Y0120250D02*
Y0124750D01*
X0263583Y0112500D02*
X0268083D01*
X0265833Y0110250D02*
Y0114750D01*
X0263583Y0122500D02*
X0268083D01*
X0265833Y0120250D02*
Y0124750D01*
X0233250Y0112500D02*
X0237750D01*
X0235500Y0110250D02*
Y0114750D01*
X0233250Y0122500D02*
X0237750D01*
X0235500Y0120250D02*
Y0124750D01*
X0202917Y0112500D02*
X0207417D01*
X0205167Y0110250D02*
Y0114750D01*
X0202917Y0122500D02*
X0207417D01*
X0205167Y0120250D02*
Y0124750D01*
X0172583Y0112500D02*
X0177083D01*
X0174833Y0110250D02*
Y0114750D01*
X0172583Y0122500D02*
X0177083D01*
X0174833Y0120250D02*
Y0124750D01*
X0143250Y0192000D02*
X0147750D01*
X0145500Y0189750D02*
Y0194250D01*
X0143250Y0152000D02*
X0147750D01*
X0145500Y0149750D02*
Y0154250D01*
X0173000Y0192000D02*
X0177500D01*
X0175250Y0189750D02*
Y0194250D01*
X0173000Y0152000D02*
X0177500D01*
X0175250Y0149750D02*
Y0154250D01*
X0202750Y0192000D02*
X0207250D01*
X0205000Y0189750D02*
Y0194250D01*
X0202750Y0152000D02*
X0207250D01*
X0205000Y0149750D02*
Y0154250D01*
X0232500Y0192000D02*
X0237000D01*
X0234750Y0189750D02*
Y0194250D01*
X0232500Y0152000D02*
X0237000D01*
X0234750Y0149750D02*
Y0154250D01*
X0262250Y0192000D02*
X0266750D01*
X0264500Y0189750D02*
Y0194250D01*
X0262250Y0152000D02*
X0266750D01*
X0264500Y0149750D02*
Y0154250D01*
X0292000Y0192000D02*
X0296500D01*
X0294250Y0189750D02*
Y0194250D01*
X0292000Y0152000D02*
X0296500D01*
X0294250Y0149750D02*
Y0154250D01*
X0402700Y0314223D02*
X0404700D01*
X0403700Y0313223D02*
Y0315223D01*
X0190702Y0314418D02*
X0194202D01*
X0192453Y0312667D02*
Y0316167D01*
X0473500Y0380500D02*
X0475500D01*
X0474500Y0379500D02*
Y0381500D01*
X0131000Y0139000D02*
X0133000D01*
X0132000Y0138000D02*
Y0140000D01*
X0135000Y0137500D02*
X0137000D01*
X0136000Y0136500D02*
Y0138500D01*
X0117750Y0379700D02*
X0129250D01*
X0123500Y0373950D02*
Y0385450D01*
X0492750Y0379500D02*
X0504250D01*
X0498500Y0373750D02*
Y0385250D01*
X0492750Y0112500D02*
X0504250D01*
X0498500Y0106750D02*
Y0118250D01*
X0117750Y0112000D02*
X0129250D01*
X0123500Y0106250D02*
Y0117750D01*
X0473200Y0169700D02*
X0475200D01*
X0474200Y0168700D02*
Y0170700D01*
X0129500Y0304000D02*
X0131500D01*
X0130500Y0303000D02*
Y0305000D01*
X0212500Y0388500D02*
X0214500D01*
X0213500Y0387500D02*
Y0389500D01*
X0315100Y0324673D02*
X0317100D01*
X0316100Y0323673D02*
Y0325673D01*
X0323000Y0285600D02*
X0325000D01*
X0324000Y0284600D02*
Y0286600D01*
X0330400Y0301900D02*
X0332400D01*
X0331400Y0300900D02*
Y0302900D01*
X0330100Y0318000D02*
X0332100D01*
X0331100Y0317000D02*
Y0319000D01*
X0330000Y0330300D02*
X0332000D01*
X0331000Y0329300D02*
Y0331300D01*
X0364900Y0260400D02*
X0366900D01*
X0365900Y0259400D02*
Y0261400D01*
X0404330Y0236670D02*
X0406330D01*
X0405330Y0235670D02*
Y0237670D01*
X0404500Y0323500D02*
X0406500D01*
X0405500Y0322500D02*
Y0324500D01*
X0292600Y0272000D02*
X0294600D01*
X0293600Y0271000D02*
Y0273000D01*
X0307250Y0281450D02*
X0310750D01*
X0309000Y0279700D02*
Y0283200D01*
X0315250Y0281450D02*
X0318750D01*
X0317000Y0279700D02*
Y0283200D01*
X0313100Y0304700D02*
X0315100D01*
X0314100Y0303700D02*
Y0305700D01*
X0322100Y0254800D02*
X0324100D01*
X0323100Y0253800D02*
Y0255800D01*
X0332000Y0240800D02*
X0334000D01*
X0333000Y0239800D02*
Y0241800D01*
X0363800Y0215450D02*
X0365800D01*
X0364800Y0214450D02*
Y0216450D01*
X0369800Y0272400D02*
X0371800D01*
X0370800Y0271400D02*
Y0273400D01*
X0380768Y0241300D02*
X0382768D01*
X0381768Y0240300D02*
Y0242300D01*
X0384900Y0272100D02*
X0386900D01*
X0385900Y0271100D02*
Y0273100D01*
X0404668Y0240874D02*
X0406668D01*
X0405668Y0239874D02*
Y0241874D01*
X0409100Y0328600D02*
X0411100D01*
X0410100Y0327600D02*
Y0329600D01*
X0207800Y0221441D02*
X0209800D01*
X0208800Y0220441D02*
Y0222441D01*
X0231600Y0211700D02*
X0233600D01*
X0232600Y0210700D02*
Y0212700D01*
X0311800Y0290000D02*
X0313800D01*
X0312800Y0289000D02*
Y0291000D01*
X0333900Y0324400D02*
X0335900D01*
X0334900Y0323400D02*
Y0325400D01*
X0366400Y0212200D02*
X0368400D01*
X0367400Y0211200D02*
Y0213200D01*
X0365100Y0250600D02*
X0367100D01*
X0366100Y0249600D02*
Y0251600D01*
X0383100Y0300100D02*
X0385100D01*
X0384100Y0299100D02*
Y0301100D01*
X0405482Y0228969D02*
X0407482D01*
X0406482Y0227969D02*
Y0229969D01*
X0399300Y0250800D02*
X0401300D01*
X0400300Y0249800D02*
Y0251800D01*
X0406400Y0277600D02*
X0408400D01*
X0407400Y0276600D02*
Y0278600D01*
X0423168Y0234874D02*
X0425168D01*
X0424168Y0233874D02*
Y0235874D01*
X0424811Y0334011D02*
X0426811D01*
X0425811Y0333011D02*
Y0335011D01*
X0247300Y0257400D02*
X0249300D01*
X0248300Y0256400D02*
Y0258400D01*
X0247500Y0239100D02*
X0249500D01*
X0248500Y0238100D02*
Y0240100D01*
X0309264Y0321823D02*
X0311264D01*
X0310264Y0320823D02*
Y0322823D01*
X0318639Y0310539D02*
X0320639D01*
X0319639Y0309539D02*
Y0311539D01*
X0310000Y0335100D02*
X0312000D01*
X0311000Y0334100D02*
Y0336100D01*
X0295100Y0358700D02*
X0297100D01*
X0296100Y0357700D02*
Y0359700D01*
X0365300Y0233600D02*
X0367300D01*
X0366300Y0232600D02*
Y0234600D01*
X0406500Y0318700D02*
X0408500D01*
X0407500Y0317700D02*
Y0319700D01*
X0424264Y0289323D02*
X0426264D01*
X0425264Y0288323D02*
Y0290323D01*
X0445300Y0328700D02*
X0447300D01*
X0446300Y0327700D02*
Y0329700D01*
X0472107Y0257607D02*
X0474107D01*
X0473107Y0256607D02*
Y0258607D01*
X0490400Y0310782D02*
X0492400D01*
X0491400Y0309782D02*
Y0311782D01*
X0477400Y0308800D02*
X0479400D01*
X0478400Y0307800D02*
Y0309800D01*
X0436400Y0111100D02*
X0438400D01*
X0437400Y0110100D02*
Y0112100D01*
X0351300Y0118700D02*
X0353300D01*
X0352300Y0117700D02*
Y0119700D01*
X0362800Y0116400D02*
X0364800D01*
X0363800Y0115400D02*
Y0117400D01*
X0217900Y0134300D02*
X0219900D01*
X0218900Y0133300D02*
Y0135300D01*
M02*
