G04*
G04 #@! TF.GenerationSoftware,Altium Limited,Altium Designer,21.0.8 (223)*
G04*
G04 Layer_Color=8388736*
%FSAX25Y25*%
%MOIN*%
G70*
G04*
G04 #@! TF.SameCoordinates,E9B5AFCA-11DB-46D5-B1A1-4708AB9E7353*
G04*
G04*
G04 #@! TF.FilePolarity,Negative*
G04*
G01*
G75*
%ADD25C,0.00000*%
%ADD26R,0.05800X0.12296*%
%ADD27R,0.09068X0.06312*%
%ADD28R,0.08600X0.03000*%
%ADD29R,0.06587X0.01902*%
%ADD30R,0.01902X0.06587*%
%ADD31R,0.04343X0.06115*%
%ADD32R,0.09800X0.06300*%
%ADD33O,0.08477X0.01981*%
%ADD34C,0.08674*%
%ADD35C,0.00800*%
%ADD36C,0.12611*%
%ADD37C,0.08123*%
%ADD38R,0.08123X0.08123*%
%ADD39R,0.07887X0.07887*%
%ADD40C,0.07887*%
%ADD41R,0.06068X0.06068*%
%ADD42C,0.06068*%
%ADD43C,0.05131*%
%ADD44C,0.08300*%
%ADD45O,0.12800X0.06800*%
%ADD46C,0.07099*%
%ADD47R,0.07099X0.07099*%
%ADD48C,0.05300*%
%ADD49C,0.06902*%
%ADD50R,0.06706X0.06706*%
%ADD51C,0.06706*%
%ADD52C,0.03800*%
%ADD53C,0.05800*%
%ADD54C,0.12800*%
D25*
X0390549Y0370300D02*
G03*
X0390549Y0370300I-0002449J0000000D01*
G01*
Y0365300D02*
G03*
X0390549Y0365300I-0002449J0000000D01*
G01*
X0385549Y0370300D02*
G03*
X0385549Y0370300I-0002449J0000000D01*
G01*
Y0365300D02*
G03*
X0385549Y0365300I-0002449J0000000D01*
G01*
X0380549Y0370300D02*
G03*
X0380549Y0370300I-0002449J0000000D01*
G01*
Y0365300D02*
G03*
X0380549Y0365300I-0002449J0000000D01*
G01*
X0375549Y0370300D02*
G03*
X0375549Y0370300I-0002449J0000000D01*
G01*
Y0365300D02*
G03*
X0375549Y0365300I-0002449J0000000D01*
G01*
X0370549Y0370300D02*
G03*
X0370549Y0370300I-0002449J0000000D01*
G01*
Y0365300D02*
G03*
X0370549Y0365300I-0002449J0000000D01*
G01*
D26*
X0165535Y0324965D02*
D03*
X0153724D02*
D03*
D27*
X0207487Y0211842D02*
D03*
X0243313D02*
D03*
X0207487Y0229558D02*
D03*
X0243313D02*
D03*
D28*
X0417764Y0333823D02*
D03*
Y0328823D02*
D03*
Y0323823D02*
D03*
Y0318823D02*
D03*
Y0313823D02*
D03*
Y0308823D02*
D03*
Y0303823D02*
D03*
Y0298823D02*
D03*
Y0293823D02*
D03*
Y0288823D02*
D03*
X0454764D02*
D03*
Y0293823D02*
D03*
Y0298823D02*
D03*
Y0303823D02*
D03*
Y0308823D02*
D03*
Y0313823D02*
D03*
Y0318823D02*
D03*
Y0323823D02*
D03*
Y0328823D02*
D03*
Y0333823D02*
D03*
D29*
X0346087Y0333587D02*
D03*
Y0331618D02*
D03*
Y0329650D02*
D03*
Y0327681D02*
D03*
Y0325713D02*
D03*
Y0323744D02*
D03*
Y0321776D02*
D03*
Y0319807D02*
D03*
Y0317839D02*
D03*
Y0315870D02*
D03*
Y0313902D02*
D03*
Y0311933D02*
D03*
Y0309965D02*
D03*
Y0307996D02*
D03*
Y0306028D02*
D03*
Y0304059D02*
D03*
X0301441D02*
D03*
Y0309965D02*
D03*
Y0311933D02*
D03*
Y0313902D02*
D03*
Y0315870D02*
D03*
Y0317839D02*
D03*
Y0319807D02*
D03*
Y0321776D02*
D03*
Y0323744D02*
D03*
Y0325713D02*
D03*
Y0327681D02*
D03*
Y0329650D02*
D03*
Y0331618D02*
D03*
Y0333587D02*
D03*
Y0307996D02*
D03*
Y0306028D02*
D03*
D30*
X0309000Y0341146D02*
D03*
X0310968D02*
D03*
X0312937D02*
D03*
X0314906D02*
D03*
X0316874D02*
D03*
X0318843D02*
D03*
X0320811D02*
D03*
X0322779D02*
D03*
X0324748D02*
D03*
X0326716D02*
D03*
X0328685D02*
D03*
X0330654D02*
D03*
X0332622D02*
D03*
X0334591D02*
D03*
X0336559D02*
D03*
X0338528D02*
D03*
Y0296500D02*
D03*
X0336559D02*
D03*
X0334591D02*
D03*
X0332622D02*
D03*
X0330654D02*
D03*
X0328685D02*
D03*
X0326716D02*
D03*
X0324748D02*
D03*
X0322779D02*
D03*
X0320811D02*
D03*
X0318843D02*
D03*
X0316874D02*
D03*
X0314906D02*
D03*
X0312937D02*
D03*
X0310968D02*
D03*
X0309000D02*
D03*
D31*
X0368221Y0186057D02*
D03*
Y0168143D02*
D03*
X0358379Y0186057D02*
D03*
Y0168143D02*
D03*
D32*
X0372700Y0129250D02*
D03*
X0352700D02*
D03*
Y0155750D02*
D03*
X0372700D02*
D03*
D33*
X0397168Y0240779D02*
D03*
Y0238811D02*
D03*
Y0236842D02*
D03*
Y0234874D02*
D03*
Y0232906D02*
D03*
Y0230937D02*
D03*
Y0228969D02*
D03*
Y0227000D02*
D03*
X0413900Y0240779D02*
D03*
Y0238811D02*
D03*
Y0236842D02*
D03*
Y0234874D02*
D03*
Y0232906D02*
D03*
Y0230937D02*
D03*
Y0228969D02*
D03*
Y0227000D02*
D03*
D34*
X0154800Y0278900D02*
D03*
Y0268900D02*
D03*
Y0258900D02*
D03*
Y0248900D02*
D03*
X0144800D02*
D03*
Y0258900D02*
D03*
Y0268900D02*
D03*
Y0278900D02*
D03*
D35*
X0131800Y0237400D02*
D03*
X0174000Y0346500D02*
D03*
X0145260D02*
D03*
D36*
X0131300Y0289900D02*
D03*
D37*
X0234000Y0336500D02*
D03*
Y0326500D02*
D03*
D38*
Y0316500D02*
D03*
D39*
X0241000Y0285700D02*
D03*
D40*
Y0275700D02*
D03*
Y0265700D02*
D03*
D41*
X0420400Y0277100D02*
D03*
D42*
Y0267100D02*
D03*
Y0257100D02*
D03*
Y0247100D02*
D03*
X0451400D02*
D03*
Y0257100D02*
D03*
Y0267100D02*
D03*
Y0277100D02*
D03*
D43*
X0209500Y0355500D02*
D03*
Y0326000D02*
D03*
X0241700Y0240500D02*
D03*
X0212200D02*
D03*
X0340900Y0196900D02*
D03*
Y0167400D02*
D03*
X0350600D02*
D03*
Y0196900D02*
D03*
X0387600Y0197000D02*
D03*
Y0167500D02*
D03*
X0337000Y0386000D02*
D03*
Y0356500D02*
D03*
X0397400Y0320000D02*
D03*
X0367900D02*
D03*
X0377200Y0167400D02*
D03*
Y0196900D02*
D03*
X0397300Y0307700D02*
D03*
X0367800D02*
D03*
X0501400Y0265700D02*
D03*
X0471900D02*
D03*
X0501400Y0275200D02*
D03*
X0471900D02*
D03*
X0465700Y0225500D02*
D03*
X0436200D02*
D03*
X0465700Y0234900D02*
D03*
X0436200D02*
D03*
X0465700Y0216100D02*
D03*
X0436200D02*
D03*
D44*
X0324000Y0152000D02*
D03*
Y0192000D02*
D03*
X0497200Y0188100D02*
D03*
X0457200D02*
D03*
X0401600Y0188600D02*
D03*
X0441600D02*
D03*
X0457000Y0153000D02*
D03*
X0497000D02*
D03*
X0457000Y0125200D02*
D03*
X0477000D02*
D03*
X0477100Y0137700D02*
D03*
X0457100D02*
D03*
X0457300Y0170700D02*
D03*
X0497300D02*
D03*
X0441600Y0153600D02*
D03*
X0401600D02*
D03*
Y0171100D02*
D03*
X0441600D02*
D03*
X0421900Y0126350D02*
D03*
X0401900D02*
D03*
Y0138600D02*
D03*
X0421900D02*
D03*
X0401900Y0114100D02*
D03*
X0421900D02*
D03*
X0368200Y0347300D02*
D03*
X0388200D02*
D03*
X0339264Y0271823D02*
D03*
Y0251823D02*
D03*
X0312764Y0271823D02*
D03*
Y0251823D02*
D03*
X0374200Y0261350D02*
D03*
X0354200D02*
D03*
X0333600Y0209700D02*
D03*
Y0229700D02*
D03*
X0283700Y0281500D02*
D03*
X0263700D02*
D03*
X0263600Y0268500D02*
D03*
X0283600D02*
D03*
X0320250Y0229700D02*
D03*
Y0209700D02*
D03*
X0306900Y0229700D02*
D03*
Y0209700D02*
D03*
X0145100Y0122900D02*
D03*
Y0112900D02*
D03*
X0354200Y0247825D02*
D03*
X0374200D02*
D03*
X0354200Y0234300D02*
D03*
X0374200D02*
D03*
X0255764Y0310323D02*
D03*
X0275764D02*
D03*
X0309264Y0380823D02*
D03*
Y0360823D02*
D03*
X0387764Y0333823D02*
D03*
X0367764D02*
D03*
X0493764D02*
D03*
X0473764D02*
D03*
X0256000Y0337000D02*
D03*
X0276000D02*
D03*
X0256000Y0324000D02*
D03*
X0276000D02*
D03*
X0326500Y0112500D02*
D03*
Y0122500D02*
D03*
X0296167Y0112500D02*
D03*
Y0122500D02*
D03*
X0265833Y0112500D02*
D03*
Y0122500D02*
D03*
X0235500Y0112500D02*
D03*
Y0122500D02*
D03*
X0205167Y0112500D02*
D03*
Y0122500D02*
D03*
X0174833Y0112500D02*
D03*
Y0122500D02*
D03*
X0145500Y0192000D02*
D03*
Y0152000D02*
D03*
X0175250Y0192000D02*
D03*
Y0152000D02*
D03*
X0205000Y0192000D02*
D03*
Y0152000D02*
D03*
X0234750Y0192000D02*
D03*
Y0152000D02*
D03*
X0264500Y0192000D02*
D03*
Y0152000D02*
D03*
X0294250Y0192000D02*
D03*
Y0152000D02*
D03*
D45*
X0192500Y0352000D02*
D03*
Y0342000D02*
D03*
Y0332000D02*
D03*
D46*
X0462600Y0205200D02*
D03*
X0452600D02*
D03*
X0442600D02*
D03*
D47*
X0432600D02*
D03*
D48*
X0368100Y0365300D02*
D03*
Y0370300D02*
D03*
X0373100Y0365300D02*
D03*
Y0370300D02*
D03*
X0378100Y0365300D02*
D03*
Y0370300D02*
D03*
X0383100Y0365300D02*
D03*
Y0370300D02*
D03*
X0388100Y0365300D02*
D03*
Y0370300D02*
D03*
D49*
X0250820Y0293400D02*
D03*
X0288380D02*
D03*
D50*
X0200900Y0293533D02*
D03*
D51*
Y0247667D02*
D03*
D52*
X0403700Y0314223D02*
D03*
X0474500Y0380500D02*
D03*
X0132000Y0139000D02*
D03*
X0136000Y0137500D02*
D03*
X0474200Y0169700D02*
D03*
X0130500Y0304000D02*
D03*
X0213500Y0388500D02*
D03*
X0316100Y0324673D02*
D03*
X0324000Y0285600D02*
D03*
X0331400Y0301900D02*
D03*
X0331100Y0318000D02*
D03*
X0331000Y0330300D02*
D03*
X0365900Y0260400D02*
D03*
X0405330Y0236670D02*
D03*
X0405500Y0323500D02*
D03*
X0293600Y0272000D02*
D03*
X0314100Y0304700D02*
D03*
X0323100Y0254800D02*
D03*
X0333000Y0240800D02*
D03*
X0364800Y0215450D02*
D03*
X0370800Y0272400D02*
D03*
X0381768Y0241300D02*
D03*
X0385900Y0272100D02*
D03*
X0405668Y0240874D02*
D03*
X0410100Y0328600D02*
D03*
X0208800Y0221441D02*
D03*
X0232600Y0211700D02*
D03*
X0312800Y0290000D02*
D03*
X0334900Y0324400D02*
D03*
X0367400Y0212200D02*
D03*
X0366100Y0250600D02*
D03*
X0384100Y0300100D02*
D03*
X0406482Y0228969D02*
D03*
X0400300Y0250800D02*
D03*
X0407400Y0277600D02*
D03*
X0424168Y0234874D02*
D03*
X0425811Y0334011D02*
D03*
X0248300Y0257400D02*
D03*
X0248500Y0239100D02*
D03*
X0310264Y0321823D02*
D03*
X0319639Y0310539D02*
D03*
X0311000Y0335100D02*
D03*
X0296100Y0358700D02*
D03*
X0366300Y0233600D02*
D03*
X0407500Y0318700D02*
D03*
X0425264Y0289323D02*
D03*
X0446300Y0328700D02*
D03*
X0473107Y0257607D02*
D03*
X0491400Y0310782D02*
D03*
X0478400Y0308800D02*
D03*
X0437400Y0111100D02*
D03*
X0352300Y0118700D02*
D03*
X0363800Y0116400D02*
D03*
X0218900Y0134300D02*
D03*
D53*
X0192453Y0314418D02*
D03*
X0309000Y0281450D02*
D03*
X0317000D02*
D03*
D54*
X0123500Y0379700D02*
D03*
X0498500Y0379500D02*
D03*
Y0112500D02*
D03*
X0123500Y0112000D02*
D03*
M02*
