G04*
G04 #@! TF.GenerationSoftware,Altium Limited,Altium Designer,21.0.8 (223)*
G04*
G04 Layer_Color=32768*
%FSAX25Y25*%
%MOIN*%
G70*
G04*
G04 #@! TF.SameCoordinates,E9B5AFCA-11DB-46D5-B1A1-4708AB9E7353*
G04*
G04*
G04 #@! TF.FilePolarity,Positive*
G04*
G01*
G75*
%ADD12C,0.01000*%
%ADD15C,0.00600*%
%ADD78C,0.00197*%
%ADD79C,0.00394*%
G36*
X0347200Y0160500D02*
D01*
X0378200D01*
D01*
D01*
Y0124500D01*
D01*
D01*
X0347200D01*
D01*
D01*
Y0160500D01*
D01*
D02*
G37*
D12*
X0151756Y0316972D02*
X0181283D01*
Y0352406D01*
X0137976D02*
X0181283D01*
X0137976Y0316972D02*
Y0352406D01*
Y0316972D02*
X0151756D01*
X0316000Y0147000D02*
X0332000D01*
Y0197000D01*
X0316000D02*
X0332000D01*
X0316000Y0147000D02*
Y0197000D01*
X0452200Y0196100D02*
X0502200D01*
Y0180100D02*
Y0196100D01*
X0452200Y0180100D02*
X0502200D01*
X0452200D02*
Y0196100D01*
X0396600Y0180600D02*
Y0196600D01*
Y0180600D02*
X0446600D01*
Y0196600D01*
X0396600D02*
X0446600D01*
X0452000Y0145000D02*
X0502000D01*
X0452000D02*
Y0161000D01*
X0502000D01*
Y0145000D02*
Y0161000D01*
X0452000Y0119700D02*
Y0130700D01*
Y0119700D02*
X0482000D01*
Y0130700D01*
X0452000D02*
X0482000D01*
X0452100Y0143200D02*
X0482100D01*
Y0132200D02*
Y0143200D01*
X0452100Y0132200D02*
X0482100D01*
X0452100D02*
Y0143200D01*
X0452300Y0162700D02*
X0502300D01*
X0452300D02*
Y0178700D01*
X0502300D01*
Y0162700D02*
Y0178700D01*
X0396600Y0161600D02*
X0446600D01*
Y0145600D02*
Y0161600D01*
X0396600Y0145600D02*
X0446600D01*
X0396600D02*
Y0161600D01*
Y0163100D02*
X0446600D01*
X0396600D02*
Y0179100D01*
X0446600D01*
Y0163100D02*
Y0179100D01*
X0426900Y0120850D02*
Y0131850D01*
X0396900D02*
X0426900D01*
X0396900Y0120850D02*
Y0131850D01*
Y0120850D02*
X0426900D01*
X0396900Y0133100D02*
X0426900D01*
X0396900D02*
Y0144100D01*
X0426900D01*
Y0133100D02*
Y0144100D01*
X0396900Y0108600D02*
Y0119600D01*
Y0108600D02*
X0426900D01*
Y0119600D01*
X0396900D02*
X0426900D01*
X0363200Y0341800D02*
X0393200D01*
X0363200D02*
Y0352800D01*
X0393200D01*
Y0341800D02*
Y0352800D01*
X0333764Y0246823D02*
Y0276823D01*
X0344764D01*
Y0246823D02*
Y0276823D01*
X0333764Y0246823D02*
X0344764D01*
X0307264D02*
Y0276823D01*
X0318264D01*
Y0246823D02*
Y0276823D01*
X0307264Y0246823D02*
X0318264D01*
X0349200Y0266850D02*
X0379200D01*
Y0255850D02*
Y0266850D01*
X0349200Y0255850D02*
X0379200D01*
X0349200D02*
Y0266850D01*
X0328100Y0204700D02*
X0339100D01*
Y0234700D01*
X0328100D02*
X0339100D01*
X0328100Y0204700D02*
Y0234700D01*
X0288700Y0276000D02*
Y0287000D01*
X0258700D02*
X0288700D01*
X0258700Y0276000D02*
Y0287000D01*
Y0276000D02*
X0288700D01*
X0258600Y0263000D02*
X0288600D01*
X0258600D02*
Y0274000D01*
X0288600D01*
Y0263000D02*
Y0274000D01*
X0314750Y0234700D02*
X0325750D01*
X0314750Y0204700D02*
Y0234700D01*
Y0204700D02*
X0325750D01*
Y0234700D01*
X0301400D02*
X0312400D01*
X0301400Y0204700D02*
Y0234700D01*
Y0204700D02*
X0312400D01*
Y0234700D01*
X0140100Y0127900D02*
X0150100D01*
X0140100Y0107900D02*
Y0127900D01*
Y0107900D02*
X0150100D01*
Y0127900D01*
X0349200Y0242325D02*
Y0253325D01*
Y0242325D02*
X0379200D01*
Y0253325D01*
X0349200D02*
X0379200D01*
X0349200Y0228800D02*
Y0239800D01*
Y0228800D02*
X0379200D01*
Y0239800D01*
X0349200D02*
X0379200D01*
X0250764Y0304823D02*
Y0315823D01*
Y0304823D02*
X0280764D01*
Y0315823D01*
X0250764D02*
X0280764D01*
X0303764Y0385823D02*
X0314764D01*
X0303764Y0355823D02*
Y0385823D01*
Y0355823D02*
X0314764D01*
Y0385823D01*
X0392764Y0328323D02*
Y0339323D01*
X0362764D02*
X0392764D01*
X0362764Y0328323D02*
Y0339323D01*
Y0328323D02*
X0392764D01*
X0498764D02*
Y0339323D01*
X0468764D02*
X0498764D01*
X0468764Y0328323D02*
Y0339323D01*
Y0328323D02*
X0498764D01*
X0251000Y0331500D02*
X0281000D01*
X0251000D02*
Y0342500D01*
X0281000D01*
Y0331500D02*
Y0342500D01*
X0251000Y0318500D02*
X0281000D01*
X0251000D02*
Y0329500D01*
X0281000D01*
Y0318500D02*
Y0329500D01*
X0331500Y0107500D02*
Y0127500D01*
X0321500Y0107500D02*
X0331500D01*
X0321500D02*
Y0127500D01*
X0331500D01*
X0301167Y0107500D02*
Y0127500D01*
X0291167Y0107500D02*
X0301167D01*
X0291167D02*
Y0127500D01*
X0301167D01*
X0270833Y0107500D02*
Y0127500D01*
X0260833Y0107500D02*
X0270833D01*
X0260833D02*
Y0127500D01*
X0270833D01*
X0240500Y0107500D02*
Y0127500D01*
X0230500Y0107500D02*
X0240500D01*
X0230500D02*
Y0127500D01*
X0240500D01*
X0210167Y0107500D02*
Y0127500D01*
X0200167Y0107500D02*
X0210167D01*
X0200167D02*
Y0127500D01*
X0210167D01*
X0179833Y0107500D02*
Y0127500D01*
X0169833Y0107500D02*
X0179833D01*
X0169833D02*
Y0127500D01*
X0179833D01*
X0137500Y0147000D02*
Y0197000D01*
X0153500D01*
Y0147000D02*
Y0197000D01*
X0137500Y0147000D02*
X0153500D01*
X0167250D02*
Y0197000D01*
X0183250D01*
Y0147000D02*
Y0197000D01*
X0167250Y0147000D02*
X0183250D01*
X0197000D02*
Y0197000D01*
X0213000D01*
Y0147000D02*
Y0197000D01*
X0197000Y0147000D02*
X0213000D01*
X0226750D02*
Y0197000D01*
X0242750D01*
Y0147000D02*
Y0197000D01*
X0226750Y0147000D02*
X0242750D01*
X0256500D02*
Y0197000D01*
X0272500D01*
Y0147000D02*
Y0197000D01*
X0256500Y0147000D02*
X0272500D01*
X0286250D02*
Y0197000D01*
X0302250D01*
Y0147000D02*
Y0197000D01*
X0286250Y0147000D02*
X0302250D01*
D15*
X0149800Y0261400D02*
Y0266400D01*
X0147300Y0263900D02*
X0152300D01*
X0157130Y0346500D02*
X0162130D01*
X0159630Y0344000D02*
Y0349000D01*
X0324000Y0169500D02*
Y0174500D01*
X0321500Y0172000D02*
X0326500D01*
X0477200Y0185600D02*
Y0190600D01*
X0474700Y0188100D02*
X0479700D01*
X0419100Y0188600D02*
X0424100D01*
X0421600Y0186100D02*
Y0191100D01*
X0477000Y0150500D02*
Y0155500D01*
X0474500Y0153000D02*
X0479500D01*
X0464500Y0125200D02*
X0469500D01*
X0467000Y0122700D02*
Y0127700D01*
X0467100Y0135200D02*
Y0140200D01*
X0464600Y0137700D02*
X0469600D01*
X0477300Y0168200D02*
Y0173200D01*
X0474800Y0170700D02*
X0479800D01*
X0421600Y0151100D02*
Y0156100D01*
X0419100Y0153600D02*
X0424100D01*
X0421600Y0168600D02*
Y0173600D01*
X0419100Y0171100D02*
X0424100D01*
X0409400Y0126350D02*
X0414400D01*
X0411900Y0123850D02*
Y0128850D01*
Y0136100D02*
Y0141100D01*
X0409400Y0138600D02*
X0414400D01*
X0409400Y0114100D02*
X0414400D01*
X0411900Y0111600D02*
Y0116600D01*
X0378200Y0344800D02*
Y0349800D01*
X0375700Y0347300D02*
X0380700D01*
X0336764Y0261823D02*
X0341764D01*
X0339264Y0259323D02*
Y0264323D01*
X0310264Y0261823D02*
X0315264D01*
X0312764Y0259323D02*
Y0264323D01*
X0364200Y0258850D02*
Y0263850D01*
X0361700Y0261350D02*
X0366700D01*
X0333600Y0217200D02*
Y0222200D01*
X0331100Y0219700D02*
X0336100D01*
X0347200Y0124500D02*
Y0160500D01*
X0378200Y0124500D02*
Y0160500D01*
X0347200Y0124500D02*
X0378200D01*
X0347200Y0160500D02*
X0378200D01*
X0271200Y0281500D02*
X0276200D01*
X0273700Y0279000D02*
Y0284000D01*
X0273600Y0266000D02*
Y0271000D01*
X0271100Y0268500D02*
X0276100D01*
X0320250Y0217200D02*
Y0222200D01*
X0317750Y0219700D02*
X0322750D01*
X0306900Y0217200D02*
Y0222200D01*
X0304400Y0219700D02*
X0309400D01*
X0145100Y0115400D02*
Y0120400D01*
X0142600Y0117900D02*
X0147600D01*
X0361700Y0247825D02*
X0366700D01*
X0364200Y0245325D02*
Y0250325D01*
X0361700Y0234300D02*
X0366700D01*
X0364200Y0231800D02*
Y0236800D01*
X0263264Y0310323D02*
X0268264D01*
X0265764Y0307823D02*
Y0312823D01*
X0309264Y0368323D02*
Y0373323D01*
X0306764Y0370823D02*
X0311764D01*
X0375264Y0333823D02*
X0380264D01*
X0377764Y0331323D02*
Y0336323D01*
X0481264Y0333823D02*
X0486264D01*
X0483764Y0331323D02*
Y0336323D01*
X0266000Y0334500D02*
Y0339500D01*
X0263500Y0337000D02*
X0268500D01*
X0266000Y0321500D02*
Y0326500D01*
X0263500Y0324000D02*
X0268500D01*
X0324000Y0117500D02*
X0329000D01*
X0326500Y0115000D02*
Y0120000D01*
X0293667Y0117500D02*
X0298667D01*
X0296167Y0115000D02*
Y0120000D01*
X0263333Y0117500D02*
X0268333D01*
X0265833Y0115000D02*
Y0120000D01*
X0233000Y0117500D02*
X0238000D01*
X0235500Y0115000D02*
Y0120000D01*
X0202667Y0117500D02*
X0207667D01*
X0205167Y0115000D02*
Y0120000D01*
X0172333Y0117500D02*
X0177333D01*
X0174833Y0115000D02*
Y0120000D01*
X0143000Y0172000D02*
X0148000D01*
X0145500Y0169500D02*
Y0174500D01*
X0172750Y0172000D02*
X0177750D01*
X0175250Y0169500D02*
Y0174500D01*
X0202500Y0172000D02*
X0207500D01*
X0205000Y0169500D02*
Y0174500D01*
X0232250Y0172000D02*
X0237250D01*
X0234750Y0169500D02*
Y0174500D01*
X0262000Y0172000D02*
X0267000D01*
X0264500Y0169500D02*
Y0174500D01*
X0291750Y0172000D02*
X0296750D01*
X0294250Y0169500D02*
Y0174500D01*
D78*
X0221756Y0304768D02*
Y0348232D01*
X0242228D01*
Y0304768D02*
Y0348232D01*
X0221756Y0304768D02*
X0242228D01*
X0416924Y0283084D02*
X0454876D01*
X0416924Y0241116D02*
X0454876D01*
Y0283084D01*
X0416924Y0241116D02*
Y0283084D01*
X0204579Y0349457D02*
X0206350D01*
X0218243Y0235579D02*
Y0237350D01*
X0202959Y0208692D02*
X0247841D01*
X0202959Y0232708D02*
X0247841D01*
X0202959Y0208692D02*
Y0232708D01*
X0247841Y0208692D02*
Y0232708D01*
X0344050Y0173443D02*
X0345821D01*
X0345679Y0190857D02*
X0347450D01*
X0390750Y0173543D02*
X0392521D01*
X0445632Y0205200D02*
X0449569D01*
X0447600Y0203232D02*
Y0207169D01*
X0426222Y0211283D02*
X0468978D01*
Y0199117D02*
Y0211283D01*
X0426222Y0199117D02*
X0468978D01*
X0426222D02*
Y0211283D01*
X0340150Y0362543D02*
X0341921D01*
X0391357Y0323150D02*
Y0324921D01*
X0380350Y0173443D02*
X0382121D01*
X0370977Y0164502D02*
Y0189698D01*
X0355623Y0164502D02*
X0370977D01*
X0355623D02*
Y0189698D01*
X0370977D01*
X0391459Y0223654D02*
Y0244126D01*
X0419609Y0223654D02*
Y0244126D01*
X0391459D02*
X0419609D01*
X0391459Y0223654D02*
X0419609D01*
X0391257Y0310850D02*
Y0312621D01*
X0477943Y0260779D02*
Y0262550D01*
Y0270279D02*
Y0272050D01*
X0442243Y0220579D02*
Y0222350D01*
Y0229979D02*
Y0231750D01*
Y0211179D02*
Y0212950D01*
D79*
X0139957Y0242247D02*
X0163579D01*
Y0285554D01*
X0139957D02*
X0163579D01*
X0139957Y0242247D02*
Y0285554D01*
X0225400Y0218731D02*
Y0222669D01*
X0223431Y0220700D02*
X0227368D01*
X0403565Y0233890D02*
X0407502D01*
X0405534Y0231921D02*
Y0235858D01*
M02*
